<svg xmlns="http://www.w3.org/2000/svg" width="187.09" height="169.44" viewBox="0 0 187.09 169.44"><title>torch_white</title><path d="M73.92,92.63c2.3-2.39,4.74-4.67,6.88-7.19S85,83,87.74,84.5c4.95,2.69,9.5,5.81,12.88,10.67,5.72-11.08,3.55-17.29-7.47-21.46-8.41-3.18-17-2.28-25.46.14-5.76,1.65-11.08,4.17-15,8.9,5.75-2.61,11.16-6,19-6.48C65.35,78.89,60,80.61,55.14,85.14c3,0,4.24-2.35,6.69-1.43-2.43,2.45-5.59,3.87-6.84,8,5.71-3.55,10.06-7.9,17.47-8.2-5.51,3-10.55,4.86-14.06,9.73a23.2,23.2,0,0,1,8.44,2.61c4.05,2.19,4.95-2,7.26-3.39-1.39,3.72-2.9,7.41-4.13,11.19-.47,1.44-2,3.12-.36,4.59a5.6,5.6,0,0,0,5.25.87c3.16-.82,5.56-2.94,7.64-5.37,1.45-1.69,2.78-3.49,4.17-5.24-.35,2.6-1.55,4.71-2.55,6.9-3.84,8.45,0,18.87,8.31,22.22,3.51,1.42,4.51,4,3.8,7.85a52.25,52.25,0,0,0,6.75-2.55c4.5-2.45,5.23-.47,5,3.65s-.78,8.3.2,13.07c4.93-5.32,4.9-11.27,5.62-17,.4-3.18-.2-5.93-3.21-7.74-2.17-1.31-2.43-3.44-3-5.81-3.26-12.77-7.7-24.93-19.89-32.36C84.79,85,83,85.19,81.08,87.91,79.35,90.31,77.42,92.77,73.92,92.63ZM100.8,45c6.13-1.49,11.91-.1,17.59,1.73,6.8,2.19,13.47,4.81,20.56,6,12.85,2.16,23.2-4.35,25.31-15.92.31-1.68.87-3.94-2-2.86-13.27,4.9-25.59.67-37.83-3.79a57.47,57.47,0,0,0-40.05-.39c-.8.28-1.76,1.17-2.8-.3C93,14.77,111.24,12.75,126.94,5.79A124.28,124.28,0,0,0,111.83,1.7,92.45,92.45,0,0,0,81,.92c-13.41,1.74-21.19,11.47-27,23-6.87,13.58-10.62,15.5-25.68,13.55C10.71,35.15-1.1,46.25.08,64,.82,75.06,12.93,86.34,22.94,84.7c4.56-.75,4.27.91,3.56,4.16-.64,2.91-1.45,6,1.42,9.57,4.33-18.2,14.59-30.54,31.8-36.06C76.32,57,92.48,56.65,106.34,70c.7-2.53-.91-3.78-2.2-4.87a84.15,84.15,0,0,0-8-5.95c-2.69-1.78-5.33-3.35-.12-6.5a56.85,56.85,0,0,0-8.65,1.4c-2,.51-2.85.15-2.57-2.09.12-1,1.39-2.14-.48-3.2-2.49,2.94-6.19,3.37-9.68,4.4s-4.78,0-3.75-3.64c-4.71,1.28-8.49,3.56-12.19,5.77-1.53-1.83.84-3.47-.54-5.12-5.65.95-7.39,6.13-10.39,10.53C46,56.51,48.6,53.54,49.31,50,42.72,51.22,41,57,38,61.5c-2.83-3.29,0-6.58-.61-9.78C27,57.45,24.94,63.52,30.53,71.44c.82,1.17,2.72,2.42,1.8,3.72-1.14,1.62-3.3.85-5.05.35-5.67-1.63-7.61-6.25-8.45-11.32-1-6,.56-11.24,6-14.83,6.54-4.36,13.9-5.58,21.49-5.11,7,.44,11.39-3,14.25-8.79,2.63-5.37,4.72-11,7.4-16.35C72.87,9.24,82.27,5.81,92.85,10A44.57,44.57,0,0,0,70.9,25.15c-4.31,5.4-5.16,11.62-2.35,15.17s7.6,3.8,14.62.14A50.41,50.41,0,0,1,105.73,35c11.33-.27,20.94,5.64,31.55,7.94-4.39,1.42-8.52,0-12.67-.89-4.86-1.09-9.67-2.5-14.58-3.3-8.32-1.35-15.81,1.6-18.48,6.83-.78,1.53-1.83,3.07.91,3.75,6.07,1.48,10.34,5.81,15.09,9.45,10.57,8.1,21,16.54,33.82,20.94,22.19,7.58,39.57-.58,45.72-21.42-2.11.09-3.74,1.32-5.51,2.15-10.11,4.75-20.44,6.54-31.49,3.4C133.13,59,118,49.36,100.8,45ZM56.52,123.74c-.13-1.88,1.1-2.36,2-3,3.75-2.72,8.18-3.57,12.6-4.44,1.23-.24,3.05.29,3.45-1.3s-.89-2.82-2.1-3.7c-3.94-2.83-8.06-4.52-13-2.42-2,.86-4,2.45-6.59,2,1-2.59,3.09-3.49,5.24-4.34s4.1-1.4,6.06-2.31c1.77-.82,4.09-1.62,3.8-4-.32-2.71-2.68-3.65-5.09-4a16.69,16.69,0,0,0-14.34,4.23,60.22,60.22,0,0,0-7.93,9.59c-1.9,2.67-2.09,4.58.91,6.53,1.63,1.06,4.52,3,3.85,4.17-3.11,5.49,1.61,6.87,4.21,9.44a2.18,2.18,0,0,1,.87,2.19C49,137.19,52,140,55.2,142.45s5.15,6.69,9.16,8.32c2.6,1.05,6.24-1.22,5.15-2.84-2.38-3.54.51-4.4,2.43-5.63,4.53-2.89,9.84-4,14.69-6.2,1.28-.58,3.26-.83,3.19-2.68s-1.91-2.52-3.5-3.08A18,18,0,0,0,76,129.85c-3.52.82-7.05,1.58-12,2.67,5.24-4.88,10.19-6.49,15.66-6.38,3.74.08,4-1.34,2.39-4.14-2.1-3.7-5.35-4.6-9.34-4.21C66.88,118.36,61.9,121.4,56.52,123.74ZM35.28,111.81c-2.07-11.67,2.3-19.55,9.38-26.35a78,78,0,0,1,13.3-9.68,44,44,0,0,1,29.66-6.35c8.4,1.08,14.76,5.29,18.74,12.74a2.1,2.1,0,0,0,1.12-2.54c-1-7.54-6.1-11.56-12.58-14.15-24.48-9.78-56.68,6-64.29,31.26C28.9,102.37,30.71,106.73,35.28,111.81ZM97.8,169.31c2-.13,3.86-.37,5.68-.34,3.37,0,4.71-1.22,4.13-4.79-.86-5.25-1.35-10.56-1.87-15.85-.22-2.18-.85-3-3.13-2-6.23,2.76-12.52,5.38-18.76,8.12-.94.41-2.87.79-2,2.21A108.13,108.13,0,0,0,89.95,168C92,170.53,95.3,168.86,97.8,169.31ZM71.6,147.12c3,2.18,4.57,7.39,8.4,6.11,8.47-2.82,16.55-6.86,24.63-10.74,2.86-1.37,1.74-4.67,1.1-6.75s-2.49,0-3.75.31c-4,1.08-8,2.28-12,3.45C83.82,141.32,77.51,142.9,71.6,147.12Z" fill="#fff" fill-rule="evenodd"/><path d="M100.8,45C118,49.36,133.13,59,150.09,63.85c11.06,3.14,21.38,1.34,31.49-3.4,1.77-.83,3.4-2.06,5.51-2.15-6.14,20.85-23.53,29-45.72,21.42-12.85-4.39-23.25-12.83-33.82-20.94-4.74-3.63-9-8-15.09-9.45-2.75-.67-1.7-2.21-.91-3.75,2.67-5.24,10.16-8.18,18.48-6.83,4.91.8,9.72,2.21,14.58,3.3,4.15.93,8.28,2.31,12.67.89-10.61-2.3-20.22-8.21-31.55-7.94a50.41,50.41,0,0,0-22.56,5.47c-7,3.66-11.73,3.52-14.62-.14s-2-9.77,2.35-15.17A44.57,44.57,0,0,1,92.85,10c-10.57-4.15-20-.71-24.93,9.15-2.68,5.34-4.77,11-7.4,16.35-2.85,5.82-7.2,9.24-14.25,8.79-7.59-.47-14.95.75-21.49,5.11-5.39,3.6-6.95,8.84-6,14.83.84,5.07,2.78,9.68,8.45,11.32,1.75.5,3.91,1.28,5.05-.35.92-1.3-1-2.55-1.8-3.72-5.59-7.92-3.57-14,6.87-19.72.65,3.2-2.22,6.48.61,9.78C41,57,42.72,51.22,49.31,50c-.71,3.58-3.31,6.55-1.53,10.82,3-4.41,4.74-9.59,10.39-10.53,1.38,1.65-1,3.29.54,5.12,3.7-2.21,7.48-4.49,12.19-5.77-1,3.59.31,4.65,3.75,3.64s7.18-1.45,9.68-4.4c1.86,1.06.6,2.23.48,3.2-.28,2.24.58,2.59,2.57,2.09A56.85,56.85,0,0,1,96,52.73c-5.21,3.16-2.57,4.72.12,6.5a84.15,84.15,0,0,1,8,5.95c1.28,1.09,2.9,2.34,2.2,4.87-13.86-13.39-30-13-46.62-7.68-17.21,5.52-27.47,17.86-31.8,36.06C25,94.9,25.86,91.77,26.5,88.86c.71-3.25,1-4.91-3.56-4.16C12.93,86.34.82,75.06.08,64-1.1,46.25,10.71,35.15,28.32,37.43c15.06,1.95,18.81,0,25.68-13.55C59.8,12.39,67.58,2.67,81,.92a92.45,92.45,0,0,1,30.84.78,124.28,124.28,0,0,1,15.11,4.09c-15.71,7-33.9,9-45.39,23.64,1,1.47,2,.58,2.8.3a57.47,57.47,0,0,1,40.05.39c12.24,4.46,24.56,8.69,37.83,3.79,2.91-1.07,2.34,1.18,2,2.86C162.16,48.35,151.81,54.86,139,52.69c-7.09-1.19-13.76-3.81-20.56-6C112.71,44.86,106.94,43.47,100.8,45Z" fill="#fff" fill-rule="evenodd"/><path d="M56.52,123.74c5.38-2.35,10.36-5.38,16.23-5.95,4-.38,7.23.52,9.34,4.21,1.59,2.8,1.35,4.22-2.39,4.14-5.47-.11-10.42,1.5-15.66,6.38,4.91-1.09,8.45-1.86,12-2.67a18,18,0,0,1,10.32.49c1.58.56,3.42,1.15,3.5,3.08s-1.92,2.11-3.19,2.68c-4.84,2.19-10.16,3.31-14.69,6.2-1.92,1.23-4.81,2.08-2.43,5.63,1.09,1.62-2.55,3.89-5.15,2.84-4-1.62-5.87-5.77-9.16-8.32s-6.21-5.26-4.82-10a2.18,2.18,0,0,0-.87-2.19c-2.61-2.56-7.32-3.95-4.21-9.44.67-1.18-2.23-3.11-3.85-4.17-3-2-2.81-3.86-.91-6.53a60.22,60.22,0,0,1,7.93-9.59A16.69,16.69,0,0,1,62.8,96.25c2.41.34,4.77,1.28,5.09,4,.29,2.43-2,3.23-3.8,4-2,.91-4.05,1.51-6.06,2.31s-4.28,1.75-5.24,4.34c2.63.4,4.55-1.19,6.59-2,5-2.1,9.09-.41,13,2.42,1.21.87,2.49,2.14,2.1,3.7s-2.21,1.06-3.45,1.3c-4.42.87-8.85,1.71-12.6,4.44C57.62,121.38,56.39,121.86,56.52,123.74Z" fill="#fff" fill-rule="evenodd"/><path d="M73.92,92.63c3.51.14,5.43-2.32,7.16-4.72,2-2.72,3.71-3,6.62-1.18,12.18,7.43,16.63,19.58,19.89,32.36.6,2.37.86,4.51,3,5.81,3,1.81,3.61,4.56,3.21,7.74-.71,5.72-.68,11.67-5.62,17-1-4.77-.38-9-.2-13.07s-.55-6.1-5-3.65a52.25,52.25,0,0,1-6.75,2.55c.71-3.87-.3-6.42-3.8-7.85-8.28-3.36-12.15-13.77-8.31-22.22,1-2.2,2.2-4.3,2.55-6.9-1.39,1.75-2.72,3.55-4.17,5.24-2.08,2.43-4.48,4.54-7.64,5.37a5.6,5.6,0,0,1-5.25-.87c-1.63-1.47-.11-3.15.36-4.59,1.23-3.78,2.73-7.46,4.13-11.19Z" fill="#fff" fill-rule="evenodd"/><path d="M73.92,92.63l.17-.17c-2.31,1.34-3.21,5.58-7.26,3.39a23.2,23.2,0,0,0-8.44-2.61c3.51-4.87,8.55-6.75,14.06-9.73C65,83.8,60.7,88.15,55,91.7c1.26-4.13,4.41-5.55,6.84-8-2.46-.91-3.69,1.38-6.69,1.43,4.88-4.53,10.22-6.25,16.54-8.87-7.85.44-13.25,3.87-19,6.48,4-4.73,9.27-7.25,15-8.9,8.45-2.42,17-3.31,25.46-.14,11,4.16,13.19,10.37,7.47,21.46-3.39-4.86-7.94-8-12.88-10.67C85,83,82.94,82.91,80.8,85.44S76.22,90.24,73.92,92.63Z" fill="#fff" fill-rule="evenodd"/><path d="M35.28,111.81c-4.56-5.08-6.37-9.45-4.68-15.07,7.61-25.29,39.81-41,64.29-31.26,6.48,2.59,11.58,6.6,12.58,14.15a2.1,2.1,0,0,1-1.12,2.54c-4-7.45-10.34-11.66-18.74-12.74a44,44,0,0,0-29.66,6.35,78,78,0,0,0-13.3,9.68C37.57,92.26,33.21,100.14,35.28,111.81Z" fill="#fff" fill-rule="evenodd"/><path d="M97.8,169.31c-2.5-.45-5.76,1.22-7.85-1.31a108.13,108.13,0,0,1-8.07-11.36c-.89-1.41,1-1.79,2-2.21,6.24-2.74,12.53-5.36,18.76-8.12,2.28-1,2.91-.17,3.13,2,.52,5.3,1,10.61,1.87,15.85.58,3.58-.76,4.84-4.13,4.79C101.66,168.94,99.83,169.17,97.8,169.31Z" fill="#fff" fill-rule="evenodd"/><path d="M71.6,147.12c5.91-4.23,12.22-5.8,18.42-7.62,4-1.17,8-2.37,12-3.45,1.26-.34,3.15-2.27,3.75-.31s1.75,5.38-1.1,6.75c-8.08,3.88-16.16,7.92-24.63,10.74C76.17,154.51,74.6,149.3,71.6,147.12Z" fill="#fff" fill-rule="evenodd"/></svg>