<?xml version="1.0" encoding="utf-8"?>
<!-- Generator: Adobe Illustrator 19.2.1, SVG Export Plug-In . SVG Version: 6.00 Build 0)  -->
<svg version="1.1" id="Layer_1" xmlns="http://www.w3.org/2000/svg" xmlns:xlink="http://www.w3.org/1999/xlink" x="0px" y="0px"
	 width="27.3px" height="23.5px" viewBox="0 0 27.3 23.5" style="enable-background:new 0 0 27.3 23.5;" xml:space="preserve">
<style type="text/css">
	.st0{fill:#47F48D;}
	.st1{fill:#2B5D9C;}
</style>
<title>warning</title>
<g id="Page-1">
	<g id="Artboard">
		<g id="Group">
			<path id="Triangle-2" class="st0" d="M10.5,2.1c1.7-2.8,4.5-2.8,6.2,0l9.8,16.2c1.7,2.8,0.4,5.1-2.9,5.1h-20
				c-3.3,0-4.6-2.3-2.9-5.1L10.5,2.1z"/>
			<path id="Rectangle-9" class="st1" d="M13.1,6.5h1c0.6,0,1,0.4,1,1v6c0,0.6-0.4,1-1,1h-1c-0.6,0-1-0.4-1-1v-6
				C12.1,6.9,12.6,6.5,13.1,6.5z"/>
			<path id="Rectangle-9-2" class="st1" d="M13.1,16.5h1c0.6,0,1,0.4,1,1v1c0,0.6-0.4,1-1,1h-1c-0.6,0-1-0.4-1-1v-1
				C12.1,16.9,12.6,16.5,13.1,16.5z"/>
		</g>
	</g>
</g>
</svg>
