<?xml version="1.0" encoding="utf-8"?>
<!-- Generator: Adobe Illustrator 19.2.1, SVG Export Plug-In . SVG Version: 6.00 Build 0)  -->
<svg version="1.1" id="Layer_1" xmlns="http://www.w3.org/2000/svg" xmlns:xlink="http://www.w3.org/1999/xlink" x="0px" y="0px"
	 width="138.8px" height="138.8px" viewBox="0 0 138.8 138.8" style="enable-background:new 0 0 138.8 138.8;" xml:space="preserve"
	>
<style type="text/css">
	.st0{fill:#3073C7;}
	.st1{fill:#FFFFFF;}
</style>
<title>info</title>
<circle class="st0" cx="69.4" cy="69.4" r="69.4"/>
<path class="st1" d="M59.2,85.4c0-6,0.7-10.7,2-14.1c1.4-3.5,3.6-6.6,6.6-9c2.5-2,4.9-4.4,6.9-6.9c1.5-2,2.4-4.4,2.4-6.9
	c0-6.2-2.7-9.2-8-9.2c-2.3-0.1-4.5,0.9-5.9,2.7c-1.6,2.1-2.5,4.7-2.4,7.3H40.1c0.1-8.1,2.7-14.5,7.7-19s12.2-6.8,21.3-6.8
	c9.1,0,16.1,2.1,21.1,6.3s7.5,10.2,7.5,17.9c0,3.2-0.6,6.4-2,9.2c-1.7,3.2-3.9,6.1-6.5,8.5l-7,6.6c-1.8,1.6-3.3,3.6-4.2,5.9
	c-0.9,2.5-1.3,5.1-1.3,7.7H59.2z M56.7,104c-0.1-2.8,1.1-5.5,3.3-7.4c2.3-2,5.2-3,8.2-2.9c3-0.1,5.9,0.9,8.2,2.9
	c4.1,3.8,4.4,10.1,0.6,14.2c-0.2,0.2-0.4,0.4-0.6,0.6c-2.3,2-5.2,3-8.2,2.9c-3,0.1-5.9-0.9-8.2-2.9C57.8,109.6,56.6,106.9,56.7,104z
	"/>
</svg>
