<?xml version="1.0" encoding="utf-8"?>
<!-- Generator: Adobe Illustrator 19.2.1, SVG Export Plug-In . SVG Version: 6.00 Build 0)  -->
<svg version="1.1" id="Layer_1" xmlns="http://www.w3.org/2000/svg" xmlns:xlink="http://www.w3.org/1999/xlink" x="0px" y="0px"
	 width="1055.5px" height="172.8px" viewBox="0 0 1055.5 172.8" style="enable-background:new 0 0 1055.5 172.8;"
	 xml:space="preserve">
<style type="text/css">
	.st0{fill:#FFFFFF;}
	.st1{fill:#47F48D;}
	.st2{fill:#08305B;}
</style>
<title>rsvLogo-new</title>
<path class="st0" d="M39.5,55c9,0,16,2.1,21.1,6.2s7.6,9.8,7.6,17c0.1,3.7-1,7.4-3.2,10.4c-2.4,3.1-5.7,5.6-9.4,7.1
	c4.7,1.3,8,3.6,10.1,6.8c2.1,3.6,3.2,7.7,3,11.9v4c-0.1,1.4,0.3,2.8,1,4c0.8,1,2.1,1.7,3.4,1.7l1.9,0.3v9.5h-8
	c-5.2,0-8.8-1.4-10.9-4.2c-2.1-2.8-3.2-6.4-3.2-10.7v-4.5c0-3.8-1-6.8-3-9s-4.9-3.3-8.7-3.4h-13v20.8l8.5,1.6v9.5H4v-9.5l8.4-1.6
	V66.2L4,64.5V55H39.5z M28.2,89.8h11c4.4,0,7.7-0.9,9.9-2.8c2.2-1.9,3.3-4.6,3.3-8.1c0.2-3.2-1-6.2-3.3-8.5
	c-2.2-2.1-5.4-3.2-9.7-3.2H28.2V89.8z"/>
<path class="st0" d="M108.8,135.1c-8.5,0-15.2-2.7-20.3-8.1c-5.1-5.4-7.6-12.3-7.6-20.7v-2.2c0-8.7,2.4-15.9,7.2-21.5
	c4.8-5.6,11.2-8.4,19.3-8.4c7.9,0,14.1,2.4,18.4,7.2c4.4,4.8,6.6,11.2,6.6,19.3v8.6h-35l-0.1,0.3c0.2,3.5,1.5,6.9,3.9,9.5
	c2.4,2.5,5.8,3.9,9.3,3.7c2.9,0.1,5.9-0.2,8.7-1c2.6-0.8,5.2-2,7.6-3.3l4.3,9.8c-2.8,2.1-6,3.8-9.4,4.8
	C117.5,134.5,113.2,135.2,108.8,135.1z M107.4,86.4c-2.7-0.1-5.3,1.2-6.9,3.3c-1.8,2.6-2.9,5.7-3.2,8.8l0.2,0.3h19.4v-1.4
	c0.2-2.9-0.7-5.7-2.4-8.1C113,87.4,110.6,86.4,107.4,86.4L107.4,86.4L107.4,86.4z"/>
<path class="st0" d="M177.2,134c-0.4-1-0.8-2-1.1-3s-0.6-2.1-0.8-3.1c-1.9,2.2-4.2,4-6.9,5.3c-2.9,1.4-6,2.1-9.2,2
	c-5.7,0-10.3-1.6-13.7-4.7c-3.4-3.1-5-7.4-5-12.8c-0.2-5.1,2.3-9.9,6.6-12.7c4.4-3,10.9-4.5,19.4-4.5h8.1v-5.8
	c0.1-2.4-0.7-4.8-2.4-6.6c-1.6-1.6-4-2.4-7.2-2.4c-1.6,0-3.3,0.2-4.8,0.6c-1.2,0.3-2.4,0.8-3.4,1.5l-1,6.3h-12l0.1-13
	c3.1-2.1,6.5-3.7,10-4.9c3.9-1.4,8.1-2,12.2-2c7.3,0,13.2,1.8,17.7,5.3c4.5,3.6,6.8,8.7,6.8,15.3v26.8c0,0.8,0.1,1.5,0.2,2.3
	l4.8,0.7v9.5h-18.4V134z M163.5,123.4c2.3,0,4.5-0.5,6.5-1.5c1.8-0.9,3.4-2.2,4.6-3.9v-9h-8.1c-3.3,0-5.9,0.8-7.6,2.4
	c-1.7,1.4-2.6,3.5-2.6,5.7c-0.1,1.8,0.6,3.5,1.9,4.7C159.7,122.9,161.6,123.5,163.5,123.4L163.5,123.4z"/>
<path class="st0" d="M239,126.8c-1.7,2.5-3.9,4.7-6.5,6.2c-2.6,1.4-5.6,2.2-8.6,2.1c-7.2,0-12.8-2.6-16.8-7.9c-4-5.3-6-12.2-6-20.9
	v-1.1c0-9.3,2-16.7,6.1-22.4c4-5.7,9.7-8.5,16.9-8.5c2.8,0,5.5,0.6,7.9,1.9c2.4,1.4,4.5,3.2,6.2,5.4v-21l-8.5-1.6v-9.6H254v73.4
	l7.6,1.6v9.5h-21.3L239,126.8z M216.9,106.3c0,5.1,0.9,9.2,2.6,12.1s4.5,4.4,8.4,4.4c2.1,0.1,4.2-0.4,6.1-1.4c1.7-0.9,3.2-2.3,4.2-4
	v-25c-1-1.8-2.4-3.3-4.1-4.4c-1.8-1.1-3.9-1.6-6-1.5c-3.6-0.2-6.9,1.9-8.5,5.2c-1.8,3.4-2.6,7.9-2.6,13.4L216.9,106.3z"/>
<path class="st0" d="M327.2,84.8l-5.5,0.8l-21.6,57.1c-1.5,4-3.8,7.6-6.8,10.6c-2.8,2.9-7.1,4.3-12.8,4.3c-1.3,0-2.5-0.1-3.8-0.3
	c-1.2-0.2-2.6-0.5-4.1-0.9l1.8-11.5l1.6,0.2c0.5,0.1,0.9,0.1,1.4,0.1c2.2,0.1,4.3-0.5,6-1.9c1.4-1.3,2.5-3,3.2-4.8l1.8-4.4L270,85.7
	l-5.5-0.9v-9.6h28.7v9.5l-6.6,1.1l8,23.4l0.8,4.2l0.3,0.1l9.3-27.7l-6.6-1.1v-9.5h28.7L327.2,84.8L327.2,84.8z"/>
<path class="st0" d="M405,80.2h-11.9l-2-10.8c-1.9-1.1-3.9-1.8-6.1-2.3c-2.8-0.7-5.6-1-8.4-1c-4.3,0-7.7,0.9-10.1,2.7
	c-2.2,1.6-3.6,4.3-3.5,7.1c0,2.7,1.4,5.2,3.7,6.6c2.5,1.7,6.7,3.5,12.8,5.4c8.7,2.4,15.3,5.6,19.8,9.6s6.7,9.2,6.7,15.7
	c0.2,6.3-2.8,12.4-8,16c-5.3,3.9-12.4,5.8-21.1,5.8c-5.8,0.1-11.5-0.9-16.9-3c-4.7-1.8-9-4.6-12.6-8.2v-16.4h12.2l1.7,11.2
	c1.9,1.5,4.1,2.6,6.5,3.2c3,0.9,6,1.3,9.1,1.3c4.3,0,7.6-0.9,9.9-2.7c2.2-1.7,3.5-4.3,3.4-7.1c0.1-2.8-1.1-5.5-3.2-7.3
	c-2.2-1.8-5.9-3.6-11.3-5.2c-9.3-2.7-16.4-5.9-21.2-9.7c-4.8-3.8-7.2-8.9-7.2-15.3s2.7-11.6,8.1-15.7s12.2-6.1,20.4-6.3
	c5.7-0.1,11.3,0.9,16.6,2.8c4.6,1.6,8.9,4.1,12.6,7.4V80.2z"/>
<path class="st0" d="M440.8,135.1c-8.5,0-15.2-2.7-20.3-8.1c-5.1-5.4-7.6-12.3-7.6-20.7v-2.2c0-8.7,2.4-15.9,7.2-21.5
	s11.2-8.4,19.3-8.4c7.9,0,14.1,2.4,18.4,7.2c4.4,4.8,6.6,11.2,6.6,19.3v8.6h-35l-0.1,0.3c0.2,3.5,1.5,6.9,3.9,9.5
	c2.4,2.5,5.8,3.9,9.3,3.7c2.9,0.1,5.9-0.2,8.7-1c2.6-0.8,5.2-2,7.6-3.3l4.3,9.8c-2.8,2.1-6,3.8-9.4,4.8
	C449.5,134.5,445.1,135.2,440.8,135.1z M439.4,86.4c-2.7-0.1-5.3,1.2-6.9,3.3c-1.8,2.6-2.9,5.7-3.1,8.8l0.2,0.3H449v-1.4
	c0.2-2.9-0.7-5.7-2.4-8.1C444.9,87.4,442.6,86.4,439.4,86.4L439.4,86.4L439.4,86.4z"/>
<path class="st0" d="M495.2,60.9v14.4h10.3v11.1h-10.3v29.9c0,2.3,0.5,3.9,1.4,4.9c1,1,2.4,1.5,3.8,1.5c1,0,1.9,0,2.9-0.1
	c0.9-0.1,1.8-0.3,2.7-0.5l1.4,11.4c-1.7,0.5-3.5,0.9-5.3,1.2c-1.9,0.3-3.8,0.4-5.6,0.4c-5.5,0-9.7-1.5-12.6-4.5s-4.4-7.8-4.4-14.3
	V86.4h-8.6V75.3h8.6V60.9H495.2z"/>
<path class="st1" d="M539.5,25.4h314.3c4.8,0,8.6,3.1,8.6,6.9v118.1c0,3.8-3.9,6.9-8.6,6.9H539.5c-4.8,0-8.6-3.1-8.6-6.9V32.2
	C530.9,28.4,534.7,25.4,539.5,25.4z"/>
<g>
	<path class="st2" d="M580.6,64.2l-5.8,1l13.6,46l1,4.2h0.3l0.9-4.1l13.7-46.2l-5.8-1v-9.2h28.1v9.3l-6.4,0.8l-22.6,66.7h-15.8
		l-23-66.7l-6.3-0.8V55h28.1V64.2L580.6,64.2z"/>
	<path class="st2" d="M698.7,93.9c0,11.3-3.2,20.6-9.7,27.9c-6.4,7.3-14.8,11-25.2,11s-18.8-3.7-25.1-11c-6.4-7.3-9.6-16.6-9.6-27.9
		v-1.2c0-11.2,3.2-20.5,9.5-27.8c6.4-7.4,14.7-11.1,25.1-11.1c10.4,0,18.8,3.7,25.3,11.1s9.7,16.7,9.7,27.8V93.9z M683.3,92.6
		c0-7.9-1.7-14.4-5-19.4s-8.2-7.4-14.7-7.5c-6.5,0-11.3,2.5-14.5,7.4s-4.8,11.4-4.8,19.4v1.3c0,8.1,1.6,14.6,4.8,19.6
		s8,7.4,14.5,7.4s11.4-2.5,14.7-7.4s4.9-11.5,4.9-19.6L683.3,92.6L683.3,92.6z"/>
	<path class="st2" d="M772,54.9v20.5h-11.8l-0.6-8.6h-14.1v54.1l8.2,1.6v9.2h-31.8v-9.2l8.2-1.6V66.8H716l-0.6,8.6h-11.7V54.9H772
		L772,54.9z"/>
	<path class="st2" d="M827.6,97.9h-26v21.9h24.8l0.7-9.2h11.7v21H778v-9.2l8.2-1.6v-55l-8.2-1.6v-9.3h60.7V76h-11.8l-0.7-9.2h-24.6
		v19.3h26L827.6,97.9L827.6,97.9z"/>
</g>
<g>
	<path class="st0" d="M887.1,133.6h-6.9v-8.3h6.9V133.6z"/>
	<path class="st0" d="M901.3,105.4c0-8.1,2.2-14.7,6.6-19.8c4.4-5.2,10.3-7.7,17.5-7.7c7.3,0,13.2,2.6,17.6,7.7
		c4.4,5.2,6.6,11.8,6.6,19.8v1.7c0,8.1-2.2,14.7-6.6,19.8c-4.4,5.1-10.2,7.7-17.5,7.7s-13.2-2.6-17.6-7.7
		c-4.4-5.1-6.6-11.8-6.6-19.8V105.4z M907.4,107.1c0,6.3,1.6,11.7,4.8,16s7.7,6.5,13.4,6.5c5.6,0,10-2.2,13.2-6.5s4.8-9.6,4.8-16
		v-1.7c0-6.2-1.6-11.5-4.8-15.9c-3.2-4.3-7.7-6.5-13.3-6.5c-5.7,0-10.1,2.2-13.3,6.5s-4.8,9.6-4.8,15.9L907.4,107.1L907.4,107.1z"/>
	<path class="st0" d="M972.6,78.9l0.8,9.1v0.7c1.5-3.4,3.7-6,6.3-7.9c2.7-1.9,5.9-2.9,9.5-2.9c0.8,0,1.5,0.1,2.2,0.2
		s1.3,0.2,1.8,0.4l-0.8,5.7l-4.5-0.3c-3.8,0-6.9,1.1-9.4,3.2c-2.4,2.1-4.2,5.1-5.2,8.8v32.7l8.2,0.7v4.4H959v-4.4l8.2-0.7V84.1
		l-8.2-0.7v-4.5h8.2H972.6z"/>
	<path class="st0" d="M1000.4,106.7c0-8.7,1.9-15.7,5.6-21c3.7-5.2,8.9-7.9,15.5-7.9c3.9,0,7.2,0.9,10.1,2.6
		c2.8,1.7,5.2,4.1,7.1,7.2l0.7-8.7h5.1v54c0,7-1.9,12.6-5.7,16.7c-3.8,4.1-9.1,6.1-15.9,6.1c-2.6,0-5.4-0.3-8.4-1
		c-3-0.6-5.6-1.5-7.8-2.6l1.6-5.1c2.2,1,4.5,1.9,6.9,2.4c2.4,0.6,4.9,0.9,7.6,0.9c5.2,0,9.1-1.5,11.7-4.6s3.9-7.3,3.9-12.8V126
		c-1.9,2.8-4.2,4.9-7,6.4s-6.2,2.2-10,2.2c-6.6,0-11.7-2.4-15.4-7.3c-3.7-4.9-5.6-11.4-5.6-19.6L1000.4,106.7L1000.4,106.7z
		 M1006.5,107.8c0,6.6,1.3,11.8,4,15.7c2.7,3.9,6.7,5.9,12,5.9c3.9,0,7.2-0.9,9.8-2.7c2.6-1.8,4.6-4.2,6-7.4V94
		c-1.3-3.2-3.3-5.8-5.8-7.8s-5.8-3-10-3c-5.3,0-9.3,2.2-12.1,6.6c-2.7,4.4-4.1,10-4.1,17v1H1006.5z"/>
</g>
</svg>
